<svg viewBox="0 0 140 200" xmlns="http://www.w3.org/2000/svg"><path d="m39.77 152.33c.87-1.27.49-2.71.49-4.05q0-43.83 0-87.66c0-3.14.29-6.09 3.46-7.51 3.69-1.65 7.57-1.89 11.25.18 2 1.11 2.32 3.1 2.31 5.23v27.68 2.48a2.28 2.28 0 0 0 2.39 2.5c1.67.13 2.33-.85 2.42-2.36 0-.82 0-1.65 0-2.48q0-20.76 0-41.52c0-7.39 5.77-11.33 12.74-8.67 3.45 1.31 4.09 4.22 4.08 7.51q0 22.71 0 45.43c0 1.77-.13 3.56 0 5.32.2 2-1 5.17 2.44 5.25s2.54-3.07 2.56-5.09c.09-10.64.05-21.29.05-31.94 0-.94 0-1.89 0-2.84-.09-3 .38-5.8 3.44-7.18a10.77 10.77 0 0 1 10.22.28c2.62 1.52 2.68 4.22 2.68 6.88q0 21.48 0 42.95c0 1.52-.32 3.16 1.43 4 2.43 1.21 4.38-.3 4.39-3.47 0-8.87.09-17.74 0-26.6 0-3.13.18-6.22 3.4-7.5 3.71-1.47 7.64-1.66 11.19.73 1.78 1.19 1.85 3.14 1.85 5.09q0 26.77 0 53.54v51.44c0 12-5.64 18.4-17.76 19.2-6 .4-12.06.16-18.09.18-9 0-18-.36-27 .1s-15.1-3.83-19.45-11.11c-6.07-10.15-11.94-20.41-17.9-30.61-3.76-6.43-7.59-12.81-11.27-19.28-3.07-5.4-2.18-10.27 2.19-13.12s7.73-2.16 10.49 2.27c4.57 7.32 9 14.72 13.57 22 .66 1.03.93 2.33 2.43 2.75zm30.5 6.59-.19.89 8.77 3.59c10.6 4.28 21.22 8.52 31.8 12.87 2.09.87 2.69.49 2.53-1.75a85.68 85.68 0 0 1 -.29-9.2c.06-2.23-.59-3-2.93-3.18-7.3-.45-14.58-1.22-21.87-1.83-5.93-.49-11.88-.93-17.82-1.39zm-22.08-22.92c0 4.2.14 8 0 11.74-.12 2.5.85 3.15 3.21 3.32 11.43.82 22.84 1.87 34.26 2.75 1.85.14 3.71 1.57 6.19-.18zm21.81 2.78-.17.66 14.92 6c8.75 3.54 17.52 7 26.24 10.65 2.09.87 2.71.47 2.57-1.77a79.2 79.2 0 0 1 -.12-8.85c.13-2.35-.55-3.31-3-3.46-6.36-.39-12.7-1.06-19.06-1.58-7.17-.55-14.29-1.09-21.38-1.65zm43.28-1.16c0-4.17-.16-7.91.06-11.63.16-2.73-1-3.31-3.45-3.47-7.77-.49-15.51-1.41-23.29-1.89-5.31-.32-10.61-1.35-16.07-.28zm-22.88-3 .23-1.07-42.55-17.16c0 4.39.09 8.25 0 12.11-.06 1.91.53 2.69 2.52 2.83 7.79.55 15.56 1.26 23.33 1.91z"/><path d="m59.8 18.83-4.3-15.52-4.17 2.78-4.18 2.77z"/><path d="m51.87 27.55-12.01-10.74-2.01 4.6-2.01 4.59z"/><path d="m50.53 38.48-15.91-2.54.79 4.95.79 4.95z"/><path d="m91.58 38.34 14.55 6.92.64-4.98.63-4.97z"/><path d="m89.41 27.13 15.98-2.04-2.16-4.53-2.15-4.53z"/><path d="m81.51 17.87 12.33-10.36-4.26-2.65-4.26-2.64z"/><path d="m70.91 14.88 4.77-15.38-5.01.08-5.02.08z"/></svg>