<svg id="Layer_1" data-name="Layer 1" xmlns="http://www.w3.org/2000/svg" viewBox="0 0 1800 400"><defs><style>.cls-1{fill:#c43812;}</style></defs><path class="cls-1" d="M119,279a78,78,0,1,1,78-78A78.09,78.09,0,0,1,119,279Zm0-106a28,28,0,1,0,28,28A28,28,0,0,0,119,173Z"/><path class="cls-1" d="M1800,18.17C1571.7,20,1371.2,38.28,1188.23,73.84c-170.93,33.23-304.57,76.64-433.8,118.62-115.89,37.64-225.34,73.2-353.72,98.77-126.3,25.16-255,37.48-400.71,38.14V400H362.2c159.72-26.88,289.32-69,423.12-112.44,126.38-41.05,257.06-83.5,422-115.56C1384,137.66,1578.24,120,1800,118.17Z"/></svg>